<svg height="22" width="70" xmlns="http://www.w3.org/2000/svg"><g fill="#fff" transform="translate(0 .725)"><path d="M7.153 6.428c3.588 0 6.6 2.323 6.6 6.622 0 .294 0 .534-.027.962H2.962c.137 2.19 1.945 3.632 4.218 3.632 1.917 0 3.205-.855 3.917-2.03l2.3 1.602c-1.232 1.896-3.368 3.098-6.244 3.098-4.163 0-7.149-2.884-7.149-6.943 0-3.926 2.986-6.943 7.149-6.943zM3.1 11.875h7.613c-.328-1.922-1.917-2.963-3.67-2.963S3.51 9.9 3.099 11.875zm11.557-5.18h3.341l4.163 9.347 4.19-9.347h3.37l-6.218 13.352h-2.656zm23.006 13.619c-4.052 0-7.175-3.071-7.175-6.943s3.122-6.943 7.175-6.943 7.176 3.07 7.176 6.943c0 3.871-3.122 6.943-7.176 6.943zm0-2.724c2.41 0 4.109-1.842 4.109-4.22s-1.698-4.218-4.109-4.218c-2.437 0-4.135 1.842-4.135 4.219s1.698 4.22 4.135 4.22zM47.88.019h3.012v20.028h-3.013zM60.889 20.18c-2.63 0-4.684-1.415-4.684-4.432V9.312h-2.848V6.695h2.848V2.983h3.013v3.712h3.917v2.617h-3.917v5.955c0 1.656.74 2.27 2.3 2.27a4.99 4.99 0 001.617-.267v2.617c-.603.187-1.315.293-2.246.293z"/><ellipse cx="67.595" cy="17.931" rx="2.384" ry="2.325"/><path d="M8.558.02c0 .812-.435 1.566-1.148 1.987a2.439 2.439 0 01-2.338.075l-1.08 2.02c.674.342 1.422.52 2.181.52 2.607 0 5.014-2.06 5.014-4.602z"/></g></svg>